<svg width="250" height="250" xmlns="http://www.w3.org/2000/svg">
 <!-- Created with UXWing SVG Editor - https://uxwing.com/svg-icon-editor/ -->

 <g>
  <title>background</title>
  <rect fill="#ffffff" id="canvas_background" height="252" width="252" y="-1" x="-1"/>
 </g>
 <g>
  <title>Layer 1</title>
  <g stroke="null" id="svg_14">
   <g stroke="null" transform="matrix(1.9397692018818102,0,0,1.9397692018818102,1.285644717642242,-19.464080625495) " id="svg_12">
    <path stroke="null" id="svg_13" d="m80.796626,72.444086l21.97,25.83l0,0l0,0c3.21,3.8 7.56,9.92 10.1,16.04c1.52,3.67 2.42,7.38 2.1,10.72c-0.34,3.71 -2.08,6.87 -5.88,8.93c-1.89,1.03 -4.28,1.76 -7.25,2.11c-0.1,0.01 -0.19,0.02 -0.28,0.02l0,0l-36.2,0l-36.2,0c-0.15,0 -0.29,-0.01 -0.44,-0.04c-2.93,-0.36 -5.28,-1.08 -7.14,-2.09c-3.86,-2.09 -5.59,-5.27 -5.91,-9.02c-0.28,-3.35 0.67,-7.1 2.25,-10.81c2.72,-6.34 7.35,-12.72 10.61,-16.58l21.21,-25.12l0,-30.57c-0.07,-0.34 -0.16,-0.68 -0.25,-1.01c-0.12,-0.43 -0.25,-0.85 -0.4,-1.28c-0.76,-2.19 -1.93,-4.37 -3.52,-6.46c-0.84,-1.11 -0.61,-2.69 0.49,-3.52c0.46,-0.34 0.99,-0.51 1.52,-0.51l0,0l8.39,0c-2,-1.24 -3.33,-3.45 -3.33,-5.98c0,-3.88 3.15,-7.03 7.03,-7.03c3.88,0 7.03,3.15 7.03,7.03c0,2.53 -1.33,4.74 -3.33,5.98l19.76,0c1.39,0 2.52,1.13 2.52,2.52c0,0.68 -0.27,1.3 -0.71,1.75c-1.01,1.15 -1.84,2.45 -2.51,3.88c-0.68,1.43 -1.21,3 -1.63,4.7l0,30.51l0,0zm-9.42,15.37l16.54,0l-11.39,-12.65c-0.48,-0.46 -0.77,-1.1 -0.77,-1.81l0,-31.7l0,0c0,-0.19 0.02,-0.39 0.07,-0.58c0.5,-2.11 1.17,-4.11 2.05,-5.97c0.16,-0.33 0.32,-0.65 0.49,-0.97l-26.2,0c0.66,1.25 1.22,2.53 1.67,3.83c0.18,0.53 0.35,1.06 0.49,1.59c0.13,0.47 0.24,0.93 0.34,1.38c0.07,0.23 0.1,0.47 0.1,0.72l0,31.71c0,0.57 -0.2,1.15 -0.6,1.62c-9.03,10.85 -25.94,28.55 -31.31,41.13c-3.77,7.04 -0.97,16.08 6.72,15.76l35.78,0l36.08,0c2.23,-0.28 3.96,-0.79 5.26,-1.5c4.15,-1.71 3.84,-12.34 2.16,-14.14c-0.32,-0.77 -0.67,-1.53 -1.04,-2.3c-0.14,0.03 -0.3,0.05 -0.44,0.05l-24.35,0c-1.27,0 -2.32,-1.18 -2.32,-2.62l0,0c0,-1.44 1.04,-2.62 2.32,-2.62l21.84,0c-1.22,-1.92 -2.51,-3.71 -3.71,-5.26c-0.11,0.02 -0.23,0.03 -0.34,0.03l-18.2,0c-7.07,0 -6.14,-5.24 -1.97,-5.24l16.17,0l-4.66,-5.47c-0.29,0.15 -0.62,0.24 -0.96,0.24l-19.82,0c-3.06,0.01 -3.06,-5.23 0,-5.23l0,0zm-29.72,-48.89c2.67,0 4.83,2.17 4.83,4.83c0,2.67 -2.17,4.83 -4.83,4.83c-2.67,0 -4.83,-2.16 -4.83,-4.83c-0.01,-2.66 2.16,-4.83 4.83,-4.83l0,0zm-3.74,-25.71c4.73,0 8.57,3.84 8.57,8.57c0,4.73 -3.84,8.57 -8.57,8.57c-4.73,0 -8.57,-3.84 -8.57,-8.57c0,-4.73 3.84,-8.57 8.57,-8.57l0,0z"/>
   </g>
  </g>
 </g>
</svg>